#!OML:ASF H:\GeneralSubjects\Female5\Project 1\Capture day 1\Session 1\Female5.ASF
:FULLY-SPECIFIED
:DEGREES
838
root 5.95548 16.2052 -0.182092 95.8366 -84.4161 -85.8639
lowerback 4.82098 3.52588 3.73064
upperback -11.4053 4.66131 -2.10713
thorax -14.8077 1.45861 -5.18544
lowerneck -11.7017 7.00324 7.96258
upperneck 28.6353 12.5552 -16.9855
head 13.2571 4.0929 -6.21312
rclavicle -4.81059e-014 -1.43125e-014
rhumerus -56.7451 27.4268 -102.776
rradius 41.8448
rwrist 0.708651
rhand -23.3957 -14.2257
rfingers 7.12502
rthumb 3.06097 -44.1834
lclavicle -4.81059e-014 -1.43125e-014
lhumerus -60.2276 -33.0994 105.281
lradius 42.4396
lwrist 15.0107
lhand -8.27433 27.4134
lfingers 7.12502
lthumb 17.6449 -303.367
rfemur 18.1227 49.9984 38.7463
rtibia -11.8894
rfoot 279.843 -15.3329
rtoes 44.4265
lfemur 6.09939 -58.4777 -18.2573
ltibia -3.21674
lfoot -66.2199 -6.42385
ltoes -12.4213
839
root 5.95662 16.2039 -0.179665 94.7364 -84.4698 -84.7625
lowerback 4.79449 3.69472 4.14402
upperback -11.3832 4.90644 -2.43036
thorax -14.6766 1.51069 -5.81062
lowerneck -11.2519 6.87371 8.07747
upperneck 30.826 12.2341 -15.8432
head 13.952 4.0067 -5.97593
rclavicle 2.82274e-014 1.59028e-015
rhumerus -56.1365 26.7139 -102.681
rradius 41.3218
rwrist 0.264269
rhand -23.1549 -14.3949
rfingers 7.12502
rthumb 3.2935 -44.3492
lclavicle 2.82274e-014 1.59028e-015
lhumerus -60.5746 -34.2529 105.684
lradius 42.6479
lwrist 15.3152
lhand -8.28739 27.5613
lfingers 7.12502
lthumb 17.6323 -303.218
rfemur 17.9934 49.7322 38.5353
rtibia -11.9149
rfoot 280.051 -15.1973
rtoes 44.2007
lfemur 6.16716 -58.7848 -18.398
ltibia -3.18371
lfoot -66.4785 -5.84145
ltoes -12.8343
840
root 5.95659 16.2032 -0.17654 93.5372 -84.4994 -83.5795
lowerback 4.808 3.82957 4.57767
upperback -11.3901 5.11294 -2.71442
thorax -14.6092 1.54107 -6.40308
lowerneck -10.6939 6.71817 8.24344
upperneck 33.0153 11.78 -14.6401
head 14.644 3.89107 -5.74234
rclavicle 1.70955e-014 2.8625e-014
rhumerus -55.7906 26.0575 -102.696
rradius 40.925
rwrist -0.265137
rhand -22.8792 -14.6917
rfingers 7.12502
rthumb 3.55973 -44.6417
lclavicle 1.70955e-014 2.8625e-014
lhumerus -60.9157 -35.3345 106.13
lradius 42.6924
lwrist 15.6539
lhand -8.03259 27.687
lfingers 7.12502
lthumb 17.8775 -303.115
rfemur 17.984 49.4399 38.4408
rtibia -11.9946
rfoot 280.264 -14.9935
rtoes 44.4986
lfemur 6.34515 -59.0859 -18.5991
ltibia -3.22752
lfoot -66.6875 -5.48429
ltoes -13.1175
841
root 5.95942 16.2003 -0.173289 93.1521 -84.5362 -83.159
lowerback 4.83457 3.95086 4.96987
upperback -11.4476 5.29879 -2.95863
thorax -14.618 1.56243 -6.93046
lowerneck -10.2522 6.38118 8.34845
upperneck 35.4121 11.0037 -13.4451
head 15.4633 3.62476 -5.5681
rclavicle 1.98785e-016 -1.27222e-014
rhumerus -55.6111 25.5541 -102.881
rradius 40.4015
rwrist -0.34938
rhand -23.1953 -14.9386
rfingers 7.12502
rthumb 3.25449 -44.8935
lclavicle 1.98785e-016 -1.27222e-014
lhumerus -61.0978 -36.1191 106.455
lradius 42.5256
lwrist 15.7802
lhand -7.69578 27.7044
lfingers 7.12502
lthumb 18.2015 -303.127
rfemur 17.8011 49.2448 38.1886
rtibia -12.0213
rfoot 280.432 -14.9288
rtoes 44.4047
lfemur 6.35721 -59.2922 -18.6718
ltibia -3.28771
lfoot -66.7988 -5.8008
ltoes -12.9198
842
root 5.96366 16.1973 -0.172666 93.1767 -84.5842 -83.1476
lowerback 4.82117 4.07276 5.25937
upperback -11.4662 5.47784 -3.1554
thorax -14.5632 1.60197 -7.33948
lowerneck -10.1502 6.11145 8.26372
upperneck 37.9389 10.1887 -11.952
head 16.4711 3.35568 -5.22695
rclavicle -1.07344e-014 -7.95139e-015
rhumerus -55.3973 24.9929 -102.991
rradius 39.7735
rwrist 0.197607
rhand -24.0763 -14.7417
rfingers 7.12502
rthumb 2.40366 -44.7079
lclavicle -1.07344e-014 -7.95139e-015
lhumerus -60.9963 -36.6336 106.487
lradius 42.4043
lwrist 15.374
lhand -7.26962 27.8368
lfingers 7.12502
lthumb 18.6115 -303.033
rfemur 17.5688 49.1031 37.9171
rtibia -11.9901
rfoot 280.624 -15.0051
rtoes 44.6568
lfemur 6.20073 -59.2827 -18.5707
ltibia -3.35652
lfoot -66.7847 -5.4711
ltoes -13.3478
843
root 5.96693 16.1978 -0.171499 91.5651 -84.5736 -81.6279
lowerback 4.75859 3.95454 5.05192
upperback -11.3625 5.32482 -2.87514
thorax -14.4621 1.58637 -6.87159
lowerneck -10.2389 6.09917 7.89631
upperneck 40.4241 9.752 -10.5016
head 17.6682 3.20235 -4.76724
rclavicle -5.88403e-014 4.13472e-014
rhumerus -55.2743 25.2106 -102.825
rradius 39.3952
rwrist 0.192998
rhand -24.1618 -14.2865
rfingers 7.12502
rthumb 2.32111 -44.2537
lclavicle -5.88403e-014 4.13472e-014
lhumerus -60.3423 -36.0962 106.22
lradius 42.2469
lwrist 14.4293
lhand -6.7045 28.0137
lfingers 7.12502
lthumb 19.155 -302.91
rfemur 17.6361 48.7751 37.9354
rtibia -12.0427
rfoot 280.87 -15.0186
rtoes 45.1172
lfemur 6.04108 -58.8622 -18.3847
ltibia -3.42385
lfoot -66.2585 -4.526
ltoes -14.2278
844
root 5.97033 16.1977 -0.16714 89.355 -84.5698 -79.5216
lowerback 4.74783 3.80945 4.94289
upperback -11.267 5.14578 -2.63002
thorax -14.3959 1.54083 -6.50196
lowerneck -10.0691 6.05816 7.58583
upperneck 42.3775 9.23884 -9.23037
head 18.5962 3.03295 -4.35689
rclavicle -6.44062e-014 3.18055e-014
rhumerus -55.2783 25.3795 -102.669
rradius 39.328
rwrist -0.262527
rhand -23.7421 -14.3369
rfingers 7.12502
rthumb 2.72646 -44.2992
lclavicle -6.44062e-014 3.18055e-014
lhumerus -59.8213 -35.5872 106.04
lradius 42.021
lwrist 13.8189
lhand -6.29675 28.2679
lfingers 7.12502
lthumb 19.5471 -302.695
rfemur 17.7792 48.3736 37.9617
rtibia -12.1712
rfoot 281.054 -14.9844
rtoes 44.7885
lfemur 5.86478 -58.4259 -18.2508
ltibia -3.46893
lfoot -65.5942 -4.93082
ltoes -13.757
845
root 5.97439 16.1948 -0.161149 88.0839 -84.5672 -78.2886
lowerback 4.71065 3.71461 4.78418
upperback -11.2557 5.02541 -2.37294
thorax -14.4099 1.52068 -6.10384
lowerneck -9.65787 5.80383 7.25185
upperneck 43.9917 8.37613 -8.08378
head 19.2736 2.71937 -4.0285
rclavicle -3.65764e-014 -1.11319e-014
rhumerus -55.5867 25.6369 -102.71
rradius 39.3938
rwrist -0.798401
rhand -23.5011 -14.6922
rfingers 7.12502
rthumb 2.95918 -44.6514
lclavicle -3.65764e-014 -1.11319e-014
lhumerus -59.6197 -35.1287 106.103
lradius 41.8631
lwrist 13.6474
lhand -6.21249 28.37
lfingers 7.12502
lthumb 19.6281 -302.601
rfemur 17.8884 48.0507 37.9011
rtibia -12.3678
rfoot 281.14 -14.9099
rtoes 43.9838
lfemur 5.6916 -58.1625 -18.1426
ltibia -3.54944
lfoot -65.1102 -6.01965
ltoes -12.6203
846
root 5.98004 16.1921 -0.153829 87.2698 -84.4899 -77.4832
lowerback 4.61607 3.644 4.63397
upperback -11.2687 4.94125 -2.06205
thorax -14.4144 1.52025 -5.65266
lowerneck -9.08025 5.28528 6.99048
upperneck 45.5017 7.16606 -7.34921
head 19.8914 2.22998 -3.97453
rclavicle -4.81059e-014 1.59028e-014
rhumerus -55.8885 26.0074 -102.747
rradius 39.3426
rwrist -1.39272
rhand -23.0473 -14.7168
rfingers 7.12502
rthumb 3.39744 -44.6695
lclavicle -4.81059e-014 1.59028e-014
lhumerus -59.544 -34.6711 106.287
lradius 41.8104
lwrist 13.5896
lhand -6.35184 28.0007
lfingers 7.12502
lthumb 19.4941 -302.957
rfemur 17.8345 47.7906 37.8685
rtibia -12.3608
rfoot 281.274 -15.1923
rtoes 43.3775
lfemur 5.44793 -57.785 -17.8725
ltibia -3.661
lfoot -64.5656 -6.48975
ltoes -12.0822
847
root 5.98637 16.1921 -0.145112 86.1177 -84.4522 -76.332
lowerback 4.52468 3.53207 4.62065
upperback -11.218 4.81374 -1.79863
thorax -14.3341 1.48698 -5.32168
lowerneck -8.66829 4.8289 6.55379
upperneck 46.8505 5.93123 -6.32847
head 20.4745 1.74343 -3.71722
rclavicle -1.25234e-014 8.74653e-015
rhumerus -55.9395 26.3582 -102.623
rradius 39.2131
rwrist -1.93317
rhand -22.6738 -14.3227
rfingers 7.12502
rthumb 3.75811 -44.2693
lclavicle -1.25234e-014 8.74653e-015
lhumerus -59.3774 -34.2673 106.38
lradius 41.8365
lwrist 13.6386
lhand -6.46672 27.6766
lfingers 7.12502
lthumb 19.3836 -303.269
rfemur 17.6993 47.5091 37.7216
rtibia -12.3407
rfoot 281.463 -15.2857
rtoes 43.9122
lfemur 5.10464 -57.3725 -17.5894
ltibia -3.71194
lfoot -63.9986 -6.57519
ltoes -11.9471
848
root 5.99146 16.192 -0.135578 84.859 -84.4963 -75.0762
lowerback 4.5289 3.39792 4.62048
upperback -11.1164 4.65751 -1.5989
thorax -14.2494 1.43588 -5.07112
lowerneck -9.35145 4.43977 5.69228
upperneck 48.3684 4.58847 -4.77996
head 21.7117 1.21939 -3.18011
rclavicle 5.00937e-014 1.03368e-014
rhumerus -55.8512 26.589 -102.375
rradius 39.2421
rwrist -2.36829
rhand -22.362 -14.3041
rfingers 7.12502
rthumb 4.05921 -44.2452
lclavicle 5.00937e-014 1.03368e-014
lhumerus -59.1385 -33.9532 106.364
lradius 41.8971
lwrist 13.7555
lhand -6.64321 27.5981
lfingers 7.12502
lthumb 19.2139 -303.331
rfemur 17.6227 47.2134 37.4692
rtibia -12.5352
rfoot 281.644 -14.8401
rtoes 45.0871
lfemur 4.85303 -57.2185 -17.5169
ltibia -3.70424
lfoot -63.7068 -6.53298
ltoes -11.9716
849
root 5.99513 16.1903 -0.126392 84.3933 -84.5891 -74.5692
lowerback 4.52626 3.29907 4.54843
upperback -11.0322 4.53901 -1.40375
thorax -14.1802 1.40849 -4.79225
lowerneck -9.41499 3.91078 5.03552
upperneck 49.2697 3.18867 -3.68183
head 22.281 0.657587 -2.80895
rclavicle -1.92821e-014 -2.46493e-014
rhumerus -55.8381 26.7375 -102.106
rradius 39.3545
rwrist -2.55671
rhand -22.2319 -14.8067
rfingers 7.12502
rthumb 4.18479 -44.7453
lclavicle -1.92821e-014 -2.46493e-014
lhumerus -58.9178 -33.6101 106.351
lradius 41.9481
lwrist 13.7818
lhand -6.91653 27.5491
lfingers 7.12502
lthumb 18.9511 -303.354
rfemur 17.4829 47.0114 37.1551
rtibia -12.6867
rfoot 281.861 -14.7066
rtoes 44.9908
lfemur 4.67332 -57.2402 -17.5434
ltibia -3.7075
lfoot -63.6743 -6.09543
ltoes -12.4045
850
root 5.99943 16.1897 -0.11927 84.1135 -84.5798 -74.2639
lowerback 4.49782 3.19918 4.51008
upperback -10.9175 4.42915 -1.14972
thorax -14.0585 1.38904 -4.46536
lowerneck -9.56919 3.27545 4.0454
upperneck 49.9269 1.66036 -2.47002
head 22.7232 0.00183447 -2.30542
rclavicle 5.81445e-014 -3.18055e-015
rhumerus -55.818 26.9729 -101.85
rradius 39.4027
rwrist -2.67848
rhand -22.07 -15.1365
rfingers 7.12502
rthumb 4.34119 -45.072
lclavicle 5.81445e-014 -3.18055e-015
lhumerus -58.6779 -33.2538 106.35
lradius 42.0991
lwrist 13.7719
lhand -6.82817 27.7336
lfingers 7.12502
lthumb 19.0361 -303.178
rfemur 17.3474 46.817 36.9875
rtibia -12.735
rfoot 282.04 -14.9381
rtoes 44.5376
lfemur 4.35551 -56.763 -17.2691
ltibia -3.78352
lfoot -63.148 -5.33559
ltoes -13.2064
